<svg xmlns="http://www.w3.org/2000/svg" viewBox="0 0 64 64" width="64" height="64" role="img" aria-label="NovFora">
  <title>NovFora</title>
  <g fill="currentColor" stroke="currentColor">
    <path d="M31 6 A22 22 0 1 1 10.5 35.5 L6 46 L16 42.5 A22 22 0 0 1 31 6 Z" fill="none" stroke-width="2.6" stroke-linejoin="round" stroke-linecap="round"/>
    <g stroke-width="1.3" stroke-dasharray="2 2.4" opacity="0.6">
      <line x1="31" y1="30" x2="34" y2="16.5"/>
      <line x1="31" y1="30" x2="18.5" y2="33"/>
      <line x1="31" y1="30" x2="43.5" y2="30"/>
    </g>
    <circle cx="18.5" cy="33" r="3" stroke="none"/>
    <circle cx="43.5" cy="30" r="3" stroke="none"/>
    <path d="M34 9 C34.6 13.4 34.6 13.4 39 14 C34.6 14.6 34.6 14.6 34 19 C33.4 14.6 33.4 14.6 29 14 C33.4 13.4 33.4 13.4 34 9 Z" stroke="none"/>
    <circle cx="31" cy="30" r="3.7" stroke="none"/>
  </g>
</svg>
